<svg xmlns="http://www.w3.org/2000/svg" viewBox="0 0 1868 969" width="1868" height="1868"><defs><linearGradient id="10110582253251708682" x1="720.1694772229707" y1="1314.3322255752641" x2="1280.0847079668392" y2="1322.886276273543" gradientTransform="matrix(0.000900685,0,0,0.002723998,-0.401835559,-3.045137609)"><stop stop-color="#2d619c" /><stop offset="1" stop-color="#3975b3" /></linearGradient><linearGradient id="5757027295965172134" x1="239.9074068113972" y1="971.5661586654221" x2="702.7378093558748" y2="1302.7158415368983" gradientTransform="matrix(0.001070091,0,0,0.0015741,-0.070090958,-1.337538363)"><stop stop-color="#2d619c" /><stop offset="1" stop-color="#3975b3" /></linearGradient><linearGradient id="7380710976676996452" x1="1334.8532431728945" y1="1311.8183924185835" x2="1900.8044627611284" y2="878.0324986450429" gradientTransform="matrix(0.001070091,0,0,0.001569653,-1.070090958,-1.330934656)"><stop stop-color="#2d619c" /><stop offset="1" stop-color="#346daa" /></linearGradient><linearGradient id="12010607157458928335" x1="1468.2605705656038" y1="901.3486124641342" x2="1404.2279141035856" y2="1000.296545652113" gradientTransform="matrix(0.001070091,0,0,0.003704032,-1.070090958,-3.140709695)"><stop stop-color="#2d619c" /><stop offset="1" stop-color="#346daa" /></linearGradient><linearGradient id="15485065711588794559" x1="563.2307139765173" y1="976.6395538383687" x2="492.511906741017" y2="905.9151768771666" gradientTransform="matrix(0.00106863,0,0,0.003728891,-0.069995261,-3.168499136)"><stop stop-color="#2d619c" /><stop offset="1" stop-color="#346daa" /></linearGradient><linearGradient id="13597642450251760267" x1="843.5371699035476" y1="842.6857607204021" x2="980.0435387393525" y2="866.4191252063347" gradientTransform="matrix(0.002548074,0,0,0.00165867,-1.548074106,-0.854215179)"><stop stop-color="#8caccd" /><stop offset="1" stop-color="#9ebbd9" /></linearGradient><linearGradient id="4383380307292141045" x1="1050.8954741671305" y1="828.1377287512519" x2="1193.9546744967333" y2="771.833825292622" gradientTransform="matrix(0.00256043,0,0,0.00165867,-2.560430188,-0.854215179)"><stop stop-color="#8caccd" /><stop offset="1" stop-color="#9ebbd9" /></linearGradient></defs><g transform="matrix(1,0,0,1,-65.5,-515)">
<g>
	<g>
		<g>
			<path d="M1000.0000000000002,1117.892587703598 C1000.0000000000002,1117.892587703598 1556.4107910156222,1484.9999999999936 1556.4107910156222,1484.9999999999936 C1556.4107910156222,1484.9999999999936 446.14448242187586,1484.9999999999936 446.14448242187586,1484.9999999999936 C446.14448242187586,1484.9999999999936 1000.0000000000002,1117.892587703598 1000.0000000000002,1117.892587703598 Z" fill="url(#10110582253251708682)"/>
		</g>
		<g>
			<path d="M446.1444824218761,1484.9999999999925 C446.1444824218761,1484.9999999999925 1000,1117.8925877035977 1000,1117.8925877035977 C1000,1117.8925877035977 65.50000000000227,849.7163085937464 65.50000000000227,849.7163085937464 C65.50000000000227,849.7163085937464 446.1444824218761,1484.9999999999925 446.1444824218761,1484.9999999999925 Z" fill="url(#5757027295965172134)"/>
		</g>
		<g>
			<path d="M1000.0000000000005,1117.892587703598 C1000.0000000000005,1117.892587703598 1556.4107910156222,1484.9999999999936 1556.4107910156222,1484.9999999999936 C1556.4107910156222,1484.9999999999936 1934.4999999999952,847.9165039062459 1934.4999999999952,847.9165039062459 C1934.4999999999952,847.9165039062459 1000.0000000000005,1117.892587703598 1000.0000000000005,1117.892587703598 Z" fill="url(#7380710976676996452)"/>
		</g>
		<g>
			<path d="M1934.4999999999957,847.9165039062464 C1934.4999999999957,847.9165039062464 999.9999999999995,918.2684157780654 999.9999999999995,918.2684157780654 C999.9999999999995,918.2684157780654 1000.0000000000034,1117.8925877035977 1000.0000000000034,1117.8925877035977 C1000.0000000000034,1117.8925877035977 1934.4999999999957,847.9165039062464 1934.4999999999957,847.9165039062464 Z" fill="url(#12010607157458928335)"/>
		</g>
		<g>
			<path d="M65.50000000000227,849.7163085937464 C65.50000000000227,849.7163085937464 999.9999999999995,918.2684157780654 999.9999999999995,918.2684157780654 C999.9999999999995,918.2684157780654 1001.277636718749,1117.892587703598 1001.277636718749,1117.892587703598 C1001.277636718749,1117.892587703598 65.50000000000227,849.7163085937464 65.50000000000227,849.7163085937464 Z" fill="url(#15485065711588794559)"/>
		</g>
		<g>
			<path d="M1000.0000000000005,1117.892587703599 C1000.0000000000005,1117.892587703599 999.9999999999987,514.9999999999968 999.9999999999987,514.9999999999968 C999.9999999999987,514.9999999999968 607.5467358657123,1005.2690926794672 607.5467358657123,1005.2690926794672 C607.5467358657123,1005.2690926794672 1000.0000000000005,1117.892587703599 1000.0000000000005,1117.892587703599 Z" fill="url(#13597642450251760267)"/>
		</g>
		<g>
			<path d="M1000,1117.8925877035983 C1000,1117.8925877035983 1390.5593696140695,1005.060389631078 1390.5593696140695,1005.060389631078 C1390.5593696140695,1005.060389631078 999.9999999999987,514.9999999999973 999.9999999999987,514.9999999999973 C999.9999999999987,514.9999999999973 1000,1117.8925877035983 1000,1117.8925877035983 Z" fill="url(#4383380307292141045)"/>
		</g>
		<g>
			<path d="M1001.2776367187485,1117.8925877035972 C1001.2776367187485,1117.8925877035972 1390.5593696140693,1005.0603896310786 1390.5593696140693,1005.0603896310786 C1390.5593696140693,1005.0603896310786 1374.7248478292463,985.1917793269392 1374.7248478292463,985.1917793269392 C1374.7248478292463,985.1917793269392 1001.1952563661227,1105.0210809328748 1001.1952563661227,1105.0210809328748 C1001.1952563661227,1105.0210809328748 1001.2776367187485,1117.8925877035972 1001.2776367187485,1117.8925877035972 Z" fill="#000000" fill-opacity="0.5"/>
		</g>
		<g>
			<path d="M1057.5406323500868,1085.0354653724628 C1057.5406323500868,1085.0354653724628 1451.2715332031232,1197.6589603965936 1451.2715332031232,1197.6589603965936 C1451.2715332031232,1197.6589603965936 1451.1891528504973,1184.7874536258694 1451.1891528504973,1184.7874536258694 C1451.1891528504973,1184.7874536258694 1074.110127989035,1064.3361558356098 1074.110127989035,1064.3361558356098 C1074.110127989035,1064.3361558356098 1057.5406323500868,1085.0354653724628 1057.5406323500868,1085.0354653724628 Z" transform="matrix(1,0,0,1,-449.993896484,-79.766372693)" fill="#000000" fill-opacity="0.5"/>
		</g>
		<g>
			<path d="M65.50000000000227,849.7163085937465 C65.50000000000227,849.7163085937465 607.5467358657124,1005.2690926794676 607.5467358657124,1005.2690926794676 C607.5467358657124,1005.2690926794676 695.0939589654372,895.9014263653871 695.0939589654372,895.9014263653871 C695.0939589654372,895.9014263653871 65.50000000000227,849.7163085937465 65.50000000000227,849.7163085937465 Z" fill="#000000" fill-opacity="0.25"/>
		</g>
		<g>
			<path d="M1390.5593696140695,1005.0603896310784 C1390.5593696140695,1005.0603896310784 1303.198310584734,895.4427541130658 1303.198310584734,895.4427541130658 C1303.198310584734,895.4427541130658 1934.4999999999952,847.9165039062464 1934.4999999999952,847.9165039062464 C1934.4999999999952,847.9165039062464 1390.5593696140695,1005.0603896310784 1390.5593696140695,1005.0603896310784 Z" fill="#000000" fill-opacity="0.25"/>
		</g>
		<g>
			<path d="M1390.5593696140695,1005.0603896310784 C1390.5593696140695,1005.0603896310784 1358.8903260444235,965.3231690228004 1358.8903260444235,965.3231690228004 C1358.8903260444235,965.3231690228004 1934.4999999999957,847.9165039062464 1934.4999999999957,847.9165039062464 C1934.4999999999957,847.9165039062464 1390.5593696140695,1005.0603896310784 1390.5593696140695,1005.0603896310784 Z" fill="#000000" fill-opacity="0.2"/>
		</g>
		<g>
			<path d="M607.5467358657124,1005.2690926794672 C607.5467358657124,1005.2690926794672 65.50000000000239,849.7163085937464 65.50000000000239,849.7163085937464 C65.50000000000239,849.7163085937464 640.6857271436089,963.870473605763 640.6857271436089,963.870473605763 C640.6857271436089,963.870473605763 607.5467358657124,1005.2690926794672 607.5467358657124,1005.2690926794672 Z" fill="#000000" fill-opacity="0.2"/>
		</g>
	</g>
</g></g></svg>
