<svg xmlns="http://www.w3.org/2000/svg" viewBox="0 0 568 512" width="568" height="512"><defs></defs><g transform="matrix(1,0,0,1,26.165726311,0)">
<g>
	<g>
		<path d="M0,80 C0,35.85721777767887 35.85721777767887,0 80,0 L432,0 C476.1427822223211,0 512,35.85721777767887 512,80 L512,432 C512,476.1427822223211 476.1427822223211,512 432,512 L80,512 C35.85721777767887,512 0,476.1427822223211 0,432 L0,80 Z" fill="none"/>
	</g>
	<g>
		<g transform="matrix(1.352201267,0,0,1.352201267,-182.361265261,-24.848097135)">
			<path d="M265.5348328769527,122.405733651173 C265.53483287695275,122.405733651173 297.47283955400206,68.67778501156519 297.47283955400206,68.67778501156519 C297.47283955400206,68.67778501156519 283.3256330070635,44.1741044982863 283.3256330070635,44.1741044982863 C283.3256330070635,44.1741044982863 184.35022178889335,44.1741044982863 184.35022178889335,44.1741044982863 C184.35022178889335,44.1741044982863 134.86251617980827,129.88932496520346 134.86251617980827,129.88932496520346 C134.86251617980827,129.88932496520346 161.9233312849413,176.7600316225987 161.9233312849413,176.7600316225987 C161.9233312849413,176.7600316225987 192.97106641900947,122.405733651173 192.97106641900947,122.405733651173 C192.97106641900947,122.405733651173 265.5348328769527,122.405733651173 265.5348328769527,122.405733651173 Z" fill="#575ec7"/>
		</g>
		<g transform="matrix(1.352201267,0,0,1.352201267,-182.361265261,-24.848097135)">
			<path d="M406.1325764600597,291.6508592802032 C406.1325764600597,291.6508592802032 448.3235889394892,291.6508592802032 448.3235889394892,291.6508592802032 C448.3235889394892,291.6508592802032 513.5043740619783,182 513.5043740619783,182 C513.5043740619783,182 448.3235889394892,72.34914071979684 448.3235889394892,72.34914071979684 C448.3235889394892,72.34914071979684 317.96201869451085,72.34914071979684 317.96201869451085,72.34914071979684 C317.96201869451085,72.34914071979684 288.2064103084723,122.40573365286687 288.2064103084723,122.40573365286687 C288.2064103084723,122.40573365286687 347.88910137816913,122.40573365286687 347.88910137816913,122.40573365286687 C347.88910137816913,122.40573365286687 425.34811884770863,258.01081075104736 425.34811884770863,258.01081075104736 C425.34811884770863,258.01081075104736 406.1325764600597,291.6508592802032 406.1325764600597,291.6508592802032 Z" fill="#3d45b8"/>
		</g>
		<g transform="matrix(1.352201267,0,0,1.352201267,-182.361265261,-24.848097135)">
			<path d="M402.39729885461514,258.01081074579463 C402.39729885461514,258.01081074579463 336.413691375835,373.52624678682156 336.413691375835,373.52624678682156 C336.413691375835,373.52624678682156 204.44647641827487,373.5262467868216 204.44647641827487,373.5262467868216 C204.44647641827487,373.5262467868216 138.46286893949474,258.01081074579463 138.46286893949474,258.01081074579463 C138.46286893949474,258.01081074579463 204.4464764182748,142.4953747047677 204.4464764182748,142.4953747047677 C204.4464764182748,142.4953747047677 336.41369137583496,142.49537470476764 336.41369137583496,142.49537470476764 C336.41369137583496,142.49537470476764 402.39729885461514,258.01081074579463 402.39729885461514,258.01081074579463 Z" transform="matrix(1,0,0,1,0,0)" fill="#303690"/>
		</g>
	</g>
</g></g></svg>